# xmcd
#
# Track frame offsets:
#	150
#	9985
#	21337
#	35275
#	46900
#	56727
#	67167
#	79330
#	87005
#	100155
#	112910
#	124947
#	139170
#	156697
#	169787
#	181352
#
# Disc length: 2632 seconds
#
# Revision: 4
# Processed by: cddbd v1.5PL3 Copyright (c) Steve Scherf et al.
# Submitted via: CDex 1.50Beta5
#
DISCID=d70a4610
DTITLE=Slim Harpo - Slim Harpo Best
DYEAR=1900
DGENRE=Blues
TTITLE0=Buzzin'
TTITLE1=Shake Your Hips
TTITLE2=I'm A King Bee
TTITLE3=Rainin' In My Heart
TTITLE4=Midnight Blues
TTITLE5=Buzz Me,Babe
TTITLE6=Late Last Night
TTITLE7=Bobby-Sox Baby
TTITLE8=Baby,Scratch My Back
TTITLE9=I Got Love,If You Want It
TTITLE10=My Little Queen Bee
TTITLE11=Blues Hangover
TTITLE12=Mutual Friend
TTITLE13=Tip On In-Part1
TTITLE14=Mohair Sam
TTITLE15=I've Been A Good Thing for You
EXTD=
EXTT0=
EXTT1=
EXTT2=
EXTT3=
EXTT4=
EXTT5=
EXTT6=
EXTT7=
EXTT8=
EXTT9=
EXTT10=
EXTT11=
EXTT12=
EXTT13=
EXTT14=
EXTT15=
PLAYORDER=
